<?xml version="1.0" standalone="no"?>
<!DOCTYPE svg PUBLIC "-//W3C//DTD SVG 20010904//EN"
 "http://www.w3.org/TR/2001/REC-SVG-20010904/DTD/svg10.dtd">
<svg version="1.0" xmlns="http://www.w3.org/2000/svg"
 width="169.000000pt" height="246.000000pt" viewBox="0 0 169.000000 246.000000"
 preserveAspectRatio="xMidYMid meet">

<g transform="translate(0.000000,246.000000) scale(0.100000,-0.100000)"
fill="#000000" stroke="none">
<path d="M1455 2374 c-63 -24 -169 -42 -309 -54 -151 -13 -330 -2 -526 34 -94
17 -145 21 -208 17 -102 -7 -112 -17 -112 -107 0 -85 -43 -313 -86 -453 -19
-63 -45 -168 -59 -235 -13 -67 -33 -164 -44 -216 -10 -52 -22 -122 -26 -155
-4 -33 -15 -97 -26 -143 -34 -147 -36 -140 102 -288 67 -71 150 -162 185 -203
36 -41 92 -98 127 -127 34 -28 93 -84 132 -124 118 -121 365 -270 448 -270 45
0 52 27 10 35 -63 14 -193 82 -323 170 -63 42 -180 161 -180 181 0 8 -28 42
-63 77 -48 47 -90 107 -176 255 -124 211 -116 203 -203 183 -45 -11 -44 -15
-19 104 11 50 25 131 31 180 6 50 22 136 35 193 14 56 29 132 35 168 10 62 43
186 74 278 23 69 58 266 65 366 l6 95 70 -1 c39 0 117 -8 175 -17 264 -41 362
-50 468 -43 234 14 310 25 407 57 52 17 98 29 101 27 13 -13 16 -117 5 -181
-15 -82 -32 -130 -78 -205 -17 -29 -40 -83 -51 -120 -41 -142 -61 -219 -68
-261 -3 -25 -15 -69 -25 -98 -15 -44 -50 -219 -75 -373 -3 -19 -11 -57 -19
-85 -41 -146 -84 -337 -89 -390 -6 -63 -15 -110 -47 -261 -25 -115 -29 -248
-8 -289 18 -37 45 -41 41 -5 -13 100 -12 202 2 265 8 39 25 128 37 200 21 130
72 363 109 505 11 41 29 129 40 195 11 66 34 170 50 230 15 61 45 173 64 250
25 96 52 171 86 240 27 55 57 133 66 174 20 89 16 217 -6 231 -22 14 -99 11
-145 -6z m-1316 -1461 l40 5 75 -121 c42 -66 73 -123 71 -126 -3 -2 -22 13
-43 35 -20 22 -74 79 -119 127 -46 48 -83 90 -83 95 0 4 4 1 9 -7 6 -10 21
-12 50 -8z"/>
</g>
</svg>
