<?xml version="1.0" standalone="no"?>
<!DOCTYPE svg PUBLIC "-//W3C//DTD SVG 20010904//EN"
 "http://www.w3.org/TR/2001/REC-SVG-20010904/DTD/svg10.dtd">
<svg version="1.0" xmlns="http://www.w3.org/2000/svg"
 width="162.000000pt" height="182.000000pt" viewBox="0 0 162.000000 182.000000"
 preserveAspectRatio="xMidYMid meet">

<g transform="translate(0.000000,182.000000) scale(0.100000,-0.100000)"
fill="#000000" stroke="none">
<path d="M635 1785 c-70 -13 -164 -43 -205 -65 -43 -23 -211 -187 -268 -262
-32 -42 -69 -99 -81 -127 -27 -63 -51 -247 -58 -436 -5 -129 -3 -149 21 -239
14 -54 38 -126 52 -160 14 -33 34 -84 45 -112 30 -77 168 -204 274 -250 105
-46 206 -78 332 -103 112 -23 155 -26 199 -12 16 5 70 14 119 21 145 19 176
35 294 150 195 190 255 374 202 620 -11 52 -23 122 -26 155 -6 54 -42 172 -97
312 -21 54 -104 190 -142 232 -30 33 -154 125 -201 149 -22 11 -56 23 -75 27
-19 4 -60 22 -91 40 -71 41 -161 75 -197 74 -15 0 -58 -7 -97 -14z m156 -40
c24 -9 73 -33 109 -54 36 -22 80 -42 99 -46 51 -11 115 -42 159 -78 22 -17 56
-44 75 -59 61 -48 146 -190 195 -328 48 -137 59 -182 92 -377 28 -160 24 -229
-17 -335 -30 -75 -133 -224 -192 -276 -78 -70 -191 -114 -335 -132 -134 -17
-226 -8 -334 33 -48 19 -101 37 -118 40 -63 12 -184 88 -264 167 -44 42 -80
85 -80 94 0 9 -10 36 -21 59 -12 23 -37 93 -55 156 -32 106 -34 125 -34 255 0
133 18 318 40 415 16 68 94 177 199 279 115 112 172 152 219 152 25 0 35 5 39
19 4 14 16 21 42 24 84 9 141 6 182 -8z"/>
<path d="M770 1429 c0 -5 5 -7 10 -4 6 3 10 8 10 11 0 2 -4 4 -10 4 -5 0 -10
-5 -10 -11z"/>
<path d="M1083 1344 c-8 -21 13 -42 28 -27 13 13 5 43 -11 43 -6 0 -13 -7 -17
-16z"/>
<path d="M620 1330 c0 -5 5 -10 11 -10 5 0 7 5 4 10 -3 6 -8 10 -11 10 -2 0
-4 -4 -4 -10z"/>
<path d="M284 1245 c-8 -19 3 -35 26 -35 19 0 30 17 23 38 -6 17 -42 15 -49
-3z"/>
<path d="M384 1088 c-4 -6 3 -19 16 -30 27 -22 34 -22 49 -4 9 11 8 18 -4 30
-19 19 -51 21 -61 4z"/>
<path d="M1050 1040 c0 -15 5 -20 18 -18 9 2 17 10 17 18 0 8 -8 16 -17 18
-13 2 -18 -3 -18 -18z"/>
<path d="M575 1027 c-10 -8 -16 -23 -13 -38 2 -19 9 -24 33 -24 25 0 31 4 33
27 4 34 -26 54 -53 35z"/>
<path d="M862 878 c-18 -18 -15 -36 9 -49 29 -15 59 12 43 39 -14 22 -36 26
-52 10z"/>
<path d="M482 758 c-28 -28 -1 -75 38 -63 33 11 21 75 -15 75 -6 0 -16 -5 -23
-12z"/>
<path d="M1280 716 c-27 -33 18 -72 48 -42 13 13 14 20 6 34 -15 23 -38 26
-54 8z"/>
<path d="M237 706 c-7 -16 1 -26 20 -26 7 0 13 9 13 20 0 23 -25 27 -33 6z"/>
<path d="M897 653 c-12 -11 -8 -40 7 -52 28 -23 68 17 45 45 -12 15 -41 19
-52 7z"/>
<path d="M626 543 c-13 -14 -5 -42 18 -56 23 -15 24 -15 28 8 3 13 2 28 -1 33
-8 12 -38 22 -45 15z"/>
<path d="M982 418 c-18 -18 -15 -36 9 -48 26 -14 51 4 47 34 -3 24 -37 33 -56
14z"/>
<path d="M1204 348 c-7 -22 19 -52 40 -45 17 6 29 34 23 51 -10 24 -54 21 -63
-6z"/>
<path d="M455 330 c3 -5 8 -10 11 -10 2 0 4 5 4 10 0 6 -5 10 -11 10 -5 0 -7
-4 -4 -10z"/>
</g>
</svg>
