<?xml version="1.0" standalone="no"?>
<!DOCTYPE svg PUBLIC "-//W3C//DTD SVG 20010904//EN"
 "http://www.w3.org/TR/2001/REC-SVG-20010904/DTD/svg10.dtd">
<svg version="1.0" xmlns="http://www.w3.org/2000/svg"
 width="121.000000pt" height="228.000000pt" viewBox="0 0 121.000000 228.000000"
 preserveAspectRatio="xMidYMid meet">

<g transform="translate(0.000000,228.000000) scale(0.100000,-0.100000)"
fill="#000000" stroke="none">
<path d="M674 2203 c-3 -15 -12 -42 -19 -58 -8 -17 -17 -88 -21 -160 -3 -72
-17 -204 -30 -293 -13 -90 -23 -167 -22 -170 1 -4 -3 -29 -10 -57 -6 -27 -14
-79 -17 -115 -13 -143 -26 -177 -40 -107 -7 31 -30 91 -100 262 -18 44 -56
148 -85 230 -28 83 -62 168 -75 190 -25 44 -55 146 -55 189 0 30 -23 44 -44
26 -30 -24 -28 -65 7 -171 39 -116 127 -466 152 -602 9 -48 27 -125 40 -170
14 -45 25 -91 25 -103 0 -34 40 -174 57 -200 14 -21 14 -24 0 -24 -17 0 -48
-74 -77 -185 -28 -110 -62 -229 -67 -238 -3 -5 -17 2 -32 16 -42 39 -69 49
-112 42 -78 -13 -119 -93 -119 -228 0 -122 34 -212 83 -219 24 -4 128 40 157
67 19 18 39 76 61 180 7 33 22 83 35 110 12 28 25 70 29 95 4 25 18 71 31 102
13 32 24 65 24 74 0 15 14 51 43 112 6 13 13 19 15 13 2 -6 11 -11 19 -11 17
0 70 -37 115 -80 36 -34 87 -139 98 -204 31 -170 120 -371 192 -431 28 -24 39
-27 85 -23 38 3 60 11 79 29 36 34 42 48 64 145 17 79 17 89 2 132 -20 61 -76
138 -105 146 -12 3 -53 6 -91 6 -59 0 -74 -4 -103 -26 -19 -14 -36 -24 -37
-23 -2 2 -11 42 -21 89 -28 134 -63 240 -105 310 l-38 66 14 59 c8 33 21 150
29 260 8 110 19 240 24 289 26 233 23 459 -6 636 -10 54 -39 68 -49 23z m30
-200 c6 -96 -4 -346 -24 -573 -24 -283 -29 -338 -36 -378 l-7 -43 -34 60 c-33
58 -34 64 -24 114 5 28 13 88 16 132 3 44 12 114 20 155 20 109 65 511 65 584
0 85 17 47 24 -51z m-391 -323 c29 -82 75 -203 117 -310 23 -58 52 -133 65
-167 l25 -62 -22 -12 c-11 -6 -34 -15 -49 -19 -32 -9 -24 -26 -68 145 -10 39
-24 102 -31 140 -6 39 -27 133 -46 211 -19 77 -34 144 -34 149 0 17 27 -30 43
-75z m251 -626 c39 -69 76 -180 76 -225 0 -23 -4 -39 -8 -37 -5 2 -36 23 -70
48 -50 36 -69 58 -97 114 -42 82 -45 116 -12 116 12 1 33 7 47 15 35 20 35 20
64 -31z m175 -389 c0 -5 -6 1 -14 15 -8 14 -14 34 -14 45 0 13 5 8 14 -15 7
-19 14 -39 14 -45z m302 -221 c38 -34 52 -75 53 -156 1 -64 -3 -84 -24 -122
-14 -26 -36 -50 -51 -56 -43 -18 -74 10 -124 114 -50 105 -61 141 -46 150 6 4
11 15 11 25 0 10 10 31 22 46 20 25 25 27 79 23 39 -3 65 -11 80 -24z m-811
-9 c13 -14 29 -25 37 -25 21 0 17 -103 -7 -147 -11 -21 -20 -54 -20 -74 0 -29
-7 -43 -31 -63 -37 -31 -76 -43 -98 -29 -40 25 -56 224 -25 299 24 57 32 64
78 64 32 0 48 -6 66 -25z"/>
<path d="M503 983 c-19 -7 -16 -53 3 -60 24 -9 49 10 49 38 0 24 -21 32 -52
22z"/>
</g>
</svg>
